<?xml version="1.0" standalone="no"?>
<!DOCTYPE svg PUBLIC "-//W3C//DTD SVG 20010904//EN"
 "http://www.w3.org/TR/2001/REC-SVG-20010904/DTD/svg10.dtd">
<svg version="1.0" xmlns="http://www.w3.org/2000/svg"
 width="984.000000pt" height="435.000000pt" viewBox="0 0 984.000000 435.000000"
 preserveAspectRatio="xMidYMid meet">
<metadata>
Created by potrace 1.10, written by Peter Selinger 2001-2011
</metadata>
<g transform="translate(0.000000,435.000000) scale(0.100000,-0.100000)"
fill="#000000" stroke="none">
<path d="M28 4301 c-29 -50 -35 -81 -18 -81 5 0 42 -19 82 -43 40 -24 80 -46
88 -50 8 -4 24 -13 35 -20 11 -7 52 -30 90 -52 39 -22 79 -45 90 -52 11 -7 27
-15 35 -19 8 -4 47 -26 85 -49 39 -22 77 -44 85 -48 8 -4 24 -13 35 -20 11 -7
52 -30 90 -52 39 -22 79 -45 90 -52 11 -7 27 -15 35 -19 8 -4 47 -26 85 -49
39 -22 77 -44 85 -48 8 -4 24 -13 35 -20 11 -7 52 -30 90 -52 39 -22 79 -45
90 -52 11 -7 27 -15 35 -19 8 -4 47 -26 85 -49 39 -22 77 -44 85 -48 8 -4 24
-13 35 -20 11 -7 52 -30 90 -52 39 -22 79 -45 90 -52 11 -7 27 -15 35 -19 19
-10 160 -91 180 -104 8 -6 22 -13 30 -17 8 -4 47 -25 85 -48 39 -22 77 -44 85
-48 8 -4 24 -13 35 -20 11 -7 52 -30 90 -52 39 -22 79 -45 90 -52 11 -7 27
-15 35 -19 8 -4 47 -26 85 -49 39 -22 77 -44 85 -48 8 -4 24 -13 35 -20 11 -7
52 -30 90 -52 39 -22 79 -45 90 -52 11 -7 27 -15 35 -19 8 -4 47 -26 85 -49
39 -22 77 -44 85 -48 8 -4 24 -13 35 -20 11 -7 52 -30 90 -52 39 -22 79 -45
90 -52 11 -7 27 -15 35 -19 8 -4 47 -26 85 -49 39 -22 77 -44 85 -48 8 -4 42
-23 75 -41 123 -67 246 -62 -1647 -61 -1008 0 -1718 -3 -1726 -8 -16 -12 -16
-92 0 -104 8 -5 718 -8 1726 -8 1893 1 1770 6 1647 -61 -33 -18 -67 -37 -75
-41 -8 -4 -46 -26 -85 -48 -38 -23 -77 -45 -85 -49 -8 -4 -24 -12 -35 -19 -11
-7 -51 -30 -90 -52 -38 -22 -79 -45 -90 -52 -11 -7 -27 -16 -35 -20 -8 -4 -46
-26 -85 -48 -38 -23 -77 -45 -85 -49 -8 -4 -24 -12 -35 -19 -11 -7 -51 -30
-90 -52 -38 -22 -79 -45 -90 -52 -11 -7 -27 -16 -35 -20 -8 -4 -46 -26 -85
-48 -38 -23 -77 -45 -85 -49 -8 -4 -24 -12 -35 -19 -11 -7 -51 -30 -90 -52
-38 -22 -79 -45 -90 -52 -11 -7 -27 -16 -35 -20 -8 -4 -46 -26 -85 -48 -38
-23 -77 -45 -85 -49 -8 -4 -24 -12 -35 -19 -11 -7 -51 -30 -90 -52 -38 -22
-79 -45 -90 -52 -11 -7 -27 -16 -35 -20 -8 -4 -46 -26 -85 -48 -38 -23 -77
-45 -85 -49 -8 -4 -24 -12 -35 -19 -11 -7 -51 -30 -90 -52 -38 -22 -79 -45
-90 -52 -11 -7 -27 -16 -35 -20 -8 -4 -46 -26 -85 -48 -38 -23 -77 -45 -85
-49 -8 -4 -24 -12 -35 -19 -11 -7 -51 -30 -90 -52 -38 -22 -79 -45 -90 -52
-11 -7 -27 -16 -35 -20 -19 -9 -160 -90 -180 -103 -8 -6 -22 -13 -30 -17 -8
-4 -46 -26 -85 -48 -38 -23 -77 -45 -85 -49 -8 -4 -24 -12 -35 -19 -11 -7 -51
-30 -90 -52 -38 -22 -79 -45 -90 -52 -11 -7 -27 -16 -35 -20 -8 -4 -48 -26
-88 -50 -40 -24 -77 -43 -82 -43 -16 0 -11 -30 12 -71 25 -45 35 -47 86 -16
20 13 44 27 52 31 8 4 24 12 35 19 11 7 52 30 90 52 39 22 79 45 90 52 11 7
27 15 35 19 8 4 47 26 85 49 39 22 77 44 85 48 8 4 24 13 35 20 11 7 51 30 90
52 38 22 79 45 90 52 11 7 27 16 35 20 8 4 47 26 85 48 39 23 77 45 85 49 8 4
24 12 35 19 11 7 52 30 90 52 39 22 79 45 90 52 11 7 27 15 35 19 8 4 47 26
85 49 39 22 77 44 85 48 8 4 24 13 35 20 11 7 52 30 90 52 39 22 79 45 90 52
11 7 27 15 35 19 8 4 47 26 85 49 39 22 77 44 85 48 8 4 24 13 35 20 11 7 52
30 90 52 39 22 79 45 90 52 11 7 27 15 35 19 8 4 47 26 85 49 39 22 77 44 85
48 8 4 24 13 35 20 11 7 52 30 90 52 39 22 79 45 90 52 11 7 27 15 35 19 8 4
47 26 85 49 39 22 77 44 85 48 8 4 24 13 35 20 11 7 52 30 90 52 39 22 79 45
90 52 11 7 27 15 35 19 8 4 47 26 85 49 39 22 77 44 85 48 8 4 24 13 35 20 11
7 52 30 90 52 39 22 79 45 90 52 11 7 27 15 35 19 8 4 47 26 85 49 39 22 77
44 85 48 8 4 24 13 35 20 91 55 159 88 171 83 12 -5 14 -142 14 -1011 0 -554
2 -1011 5 -1016 8 -12 72 -12 96 1 19 11 19 31 19 1026 0 558 2 1019 4 1023 3
4 1336 7 2963 6 1751 0 2963 3 2971 8 16 12 16 92 0 104 -8 5 -1220 8 -2971 8
-1627 -1 -2960 2 -2963 6 -2 4 -4 465 -4 1023 0 995 0 1015 -19 1026 -24 13
-88 13 -96 1 -3 -5 -5 -462 -5 -1016 0 -869 -2 -1006 -14 -1011 -12 -5 -80 28
-171 83 -11 7 -27 16 -35 20 -8 4 -46 26 -85 48 -38 23 -77 45 -85 49 -8 4
-24 12 -35 19 -11 7 -51 30 -90 52 -38 22 -79 45 -90 52 -11 7 -27 16 -35 20
-8 4 -46 26 -85 48 -38 23 -77 45 -85 49 -8 4 -24 12 -35 19 -11 7 -51 30 -90
52 -38 22 -79 45 -90 52 -11 7 -27 16 -35 20 -8 4 -46 26 -85 48 -38 23 -77
45 -85 49 -8 4 -24 12 -35 19 -11 7 -51 30 -90 52 -38 22 -79 45 -90 52 -11 7
-27 16 -35 20 -8 4 -46 26 -85 48 -38 23 -77 45 -85 49 -8 4 -24 12 -35 19
-11 7 -51 30 -90 52 -38 22 -79 45 -90 52 -11 7 -27 16 -35 20 -8 4 -46 26
-85 48 -38 23 -77 45 -85 49 -8 4 -24 12 -35 19 -11 7 -51 30 -90 52 -38 22
-79 45 -90 52 -11 7 -27 16 -35 20 -8 4 -46 26 -85 48 -38 23 -77 45 -85 49
-8 4 -24 12 -35 19 -11 7 -51 30 -90 52 -38 22 -79 45 -90 52 -11 7 -27 16
-35 20 -8 4 -46 26 -85 48 -38 23 -77 45 -85 49 -8 4 -24 12 -35 19 -11 7 -51
30 -90 52 -38 22 -79 45 -90 52 -11 7 -27 16 -35 20 -8 4 -46 26 -85 48 -38
23 -77 45 -85 49 -8 4 -24 12 -35 19 -11 7 -51 30 -90 52 -38 22 -77 45 -87
50 -9 6 -38 21 -64 35 -26 14 -49 33 -52 43 -8 29 -26 19 -54 -32z"/>
</g>
</svg>
