<?xml version="1.0" standalone="no"?>
<!DOCTYPE svg PUBLIC "-//W3C//DTD SVG 20010904//EN"
 "http://www.w3.org/TR/2001/REC-SVG-20010904/DTD/svg10.dtd">
<svg version="1.0" xmlns="http://www.w3.org/2000/svg"
 width="387.000000pt" height="435.000000pt" viewBox="0 0 387.000000 435.000000"
 preserveAspectRatio="xMidYMid meet">
<metadata>
Created by potrace 1.10, written by Peter Selinger 2001-2011
</metadata>
<g transform="translate(0.000000,435.000000) scale(0.100000,-0.100000)"
fill="#000000" stroke="none">
<path d="M3770 4335 c0 -8 -15 -21 -32 -29 -18 -8 -55 -29 -83 -45 -27 -17
-57 -34 -65 -38 -8 -4 -46 -25 -85 -48 -38 -22 -77 -44 -85 -48 -8 -4 -24 -13
-35 -20 -11 -7 -52 -30 -90 -52 -39 -22 -79 -45 -90 -52 -11 -7 -27 -15 -35
-19 -8 -4 -46 -26 -85 -49 -38 -22 -77 -44 -85 -48 -8 -4 -24 -13 -35 -20 -11
-7 -52 -30 -90 -52 -39 -22 -79 -45 -90 -52 -11 -7 -27 -15 -35 -19 -8 -4 -46
-26 -85 -49 -38 -22 -77 -44 -85 -48 -8 -4 -24 -13 -35 -20 -11 -7 -52 -30
-90 -52 -39 -22 -79 -45 -90 -52 -11 -7 -27 -15 -35 -19 -8 -4 -46 -26 -85
-49 -38 -22 -77 -44 -85 -48 -8 -4 -24 -13 -35 -20 -11 -7 -52 -30 -90 -52
-39 -22 -79 -45 -90 -52 -11 -7 -27 -15 -35 -19 -19 -10 -160 -91 -180 -104
-8 -6 -22 -13 -30 -17 -8 -4 -46 -25 -85 -48 -38 -22 -77 -44 -85 -48 -8 -4
-24 -13 -35 -20 -11 -7 -52 -30 -90 -52 -39 -22 -79 -45 -90 -52 -11 -7 -27
-15 -35 -19 -8 -4 -46 -26 -85 -49 -38 -22 -77 -44 -85 -48 -8 -4 -24 -13 -35
-20 -11 -7 -52 -30 -90 -52 -39 -22 -79 -45 -90 -52 -11 -7 -27 -15 -35 -19
-8 -4 -46 -26 -85 -49 -38 -22 -77 -44 -85 -48 -8 -4 -24 -13 -35 -20 -11 -7
-52 -30 -90 -52 -39 -22 -79 -45 -90 -52 -11 -7 -27 -15 -35 -19 -8 -4 -46
-26 -85 -49 -38 -22 -77 -44 -85 -48 -15 -7 -53 -30 -116 -68 -17 -10 -34 -16
-37 -12 -4 3 -7 462 -7 1019 0 913 -2 1012 -16 1018 -9 3 -33 6 -55 6 l-39 0
0 -2125 0 -2125 39 0 c22 0 46 3 55 6 14 6 16 105 16 1018 0 557 3 1016 7
1019 3 4 20 -2 37 -12 63 -38 101 -61 116 -68 8 -4 47 -26 85 -48 39 -23 77
-45 85 -49 8 -4 24 -12 35 -19 11 -7 52 -30 90 -52 39 -22 79 -45 90 -52 11
-7 27 -16 35 -20 8 -4 47 -26 85 -48 39 -23 77 -45 85 -49 8 -4 24 -12 35 -19
11 -7 52 -30 90 -52 39 -22 79 -45 90 -52 11 -7 27 -15 35 -19 8 -4 47 -26 85
-49 39 -22 77 -44 85 -48 8 -4 24 -13 35 -20 11 -7 52 -30 90 -52 39 -22 79
-45 90 -52 11 -7 27 -16 35 -20 8 -4 47 -26 85 -48 39 -23 77 -45 85 -49 8 -4
24 -12 35 -19 11 -7 51 -30 90 -52 38 -22 79 -45 90 -52 11 -7 27 -16 35 -20
8 -4 47 -26 85 -48 39 -23 77 -45 85 -49 8 -4 24 -12 35 -19 11 -7 52 -30 90
-52 39 -22 79 -45 90 -52 11 -7 27 -16 35 -20 8 -4 47 -26 85 -48 39 -23 77
-45 85 -49 8 -4 24 -12 35 -19 11 -7 52 -30 90 -52 39 -22 79 -45 90 -52 11
-7 27 -15 35 -19 19 -10 160 -91 180 -104 8 -6 22 -13 30 -17 8 -4 47 -25 85
-48 39 -22 77 -44 85 -48 8 -4 24 -13 35 -20 11 -7 51 -30 90 -52 38 -22 79
-45 90 -52 11 -7 27 -16 35 -20 8 -4 47 -26 85 -48 39 -23 77 -44 85 -48 8 -4
31 -17 50 -28 61 -38 140 -79 150 -79 5 0 21 20 36 45 30 51 29 53 -41 90 -16
9 -39 22 -50 28 -11 7 -51 30 -90 52 -38 22 -79 45 -90 52 -11 7 -27 16 -35
20 -8 4 -46 26 -85 48 -38 23 -77 45 -85 49 -8 4 -24 12 -35 19 -11 7 -51 30
-90 52 -38 22 -79 45 -90 52 -11 7 -27 16 -35 20 -8 4 -46 26 -85 48 -38 23
-77 45 -85 49 -8 4 -24 12 -35 19 -11 7 -51 30 -90 52 -38 22 -79 45 -90 52
-11 7 -27 16 -35 20 -8 4 -46 26 -85 48 -38 23 -77 45 -85 49 -8 4 -24 12 -35
19 -11 7 -51 30 -90 52 -38 22 -79 45 -90 52 -11 7 -27 16 -35 20 -8 4 -46 26
-85 48 -38 23 -77 45 -85 49 -8 4 -24 12 -35 19 -11 7 -51 30 -90 52 -38 22
-79 45 -90 52 -11 7 -27 16 -35 20 -8 4 -46 26 -85 48 -38 23 -77 45 -85 49
-8 4 -24 12 -35 19 -11 7 -51 30 -90 52 -38 22 -79 45 -90 52 -11 7 -27 16
-35 20 -8 4 -46 26 -85 48 -38 23 -77 45 -85 49 -8 4 -24 12 -35 19 -11 7 -51
30 -90 52 -38 22 -79 45 -90 52 -11 7 -27 16 -35 20 -8 4 -46 26 -85 48 -38
23 -77 45 -85 49 -8 4 -24 12 -35 19 -11 7 -51 30 -90 52 -38 22 -79 45 -90
52 -11 7 -27 16 -35 20 -8 4 -47 26 -86 49 -39 23 -80 45 -92 48 -12 4 -22 15
-22 25 0 16 94 17 1716 17 1490 0 1717 2 1724 14 12 19 12 71 1 89 -8 13 -240
15 -1725 15 -1621 0 -1716 1 -1716 17 0 10 10 21 22 25 12 3 53 25 92 48 39
23 78 45 86 49 8 4 24 13 35 20 11 7 51 30 90 52 38 22 79 45 90 52 11 7 27
16 35 20 8 4 47 26 85 48 39 23 77 45 85 49 8 4 24 12 35 19 11 7 52 30 90 52
39 22 79 45 90 52 11 7 27 16 35 20 8 4 47 26 85 48 39 23 77 45 85 49 8 4 24
12 35 19 11 7 52 30 90 52 39 22 79 45 90 52 11 7 27 15 35 19 8 4 47 26 85
49 39 22 77 44 85 48 8 4 24 13 35 20 11 7 52 30 90 52 39 22 79 45 90 52 11
7 27 16 35 20 8 4 47 26 85 48 39 23 77 45 85 49 8 4 24 12 35 19 11 7 51 30
90 52 38 22 79 45 90 52 11 7 27 16 35 20 8 4 47 26 85 48 39 23 77 45 85 49
8 4 24 12 35 19 11 7 52 30 90 52 39 22 79 45 90 52 11 7 27 16 35 20 8 4 47
26 85 48 39 23 77 45 85 49 8 4 24 12 35 19 11 7 52 30 90 52 39 22 79 45 90
52 11 7 27 15 35 19 19 10 160 91 180 104 8 6 22 13 30 17 8 4 47 25 85 48 39
22 77 44 85 48 40 19 96 56 104 70 7 11 3 30 -14 66 -24 48 -50 67 -50 36z"/>
</g>
</svg>
