<?xml version="1.0" standalone="no"?>
<!DOCTYPE svg PUBLIC "-//W3C//DTD SVG 20010904//EN"
 "http://www.w3.org/TR/2001/REC-SVG-20010904/DTD/svg10.dtd">
<svg version="1.0" xmlns="http://www.w3.org/2000/svg"
 width="393.000000pt" height="429.000000pt" viewBox="0 0 393.000000 429.000000"
 preserveAspectRatio="xMidYMid meet">
<metadata>
Created by potrace 1.10, written by Peter Selinger 2001-2011
</metadata>
<g transform="translate(0.000000,429.000000) scale(0.100000,-0.100000)"
fill="#000000" stroke="none">
<path d="M0 2145 l0 -2145 49 0 c35 0 51 4 55 16 3 9 6 974 6 2145 l0 2129
-55 0 -55 0 0 -2145z"/>
<path d="M1908 3261 c-2 -566 -6 -1032 -9 -1035 -4 -4 -393 -6 -866 -6 -474 0
-868 -2 -877 -6 -12 -4 -16 -19 -16 -54 0 -27 4 -51 9 -55 6 -3 392 -5 859 -5
539 0 860 -3 876 -10 l26 -10 0 -1030 c0 -567 2 -1035 5 -1040 4 -6 26 -10 50
-10 34 0 47 5 55 20 7 13 10 346 10 1040 0 562 2 1025 5 1031 4 6 345 9 923 9
504 0 929 0 945 0 26 0 27 2 27 54 l0 53 -40 7 c-22 3 -448 6 -946 6 -499 0
-909 1 -911 3 -2 2 -3 468 -3 1036 l0 1031 -60 0 -60 0 -2 -1029z"/>
</g>
</svg>
