<?xml version="1.0" standalone="no"?>
<!DOCTYPE svg PUBLIC "-//W3C//DTD SVG 20010904//EN"
 "http://www.w3.org/TR/2001/REC-SVG-20010904/DTD/svg10.dtd">
<svg version="1.0" xmlns="http://www.w3.org/2000/svg"
 width="393.000000pt" height="429.000000pt" viewBox="0 0 393.000000 429.000000"
 preserveAspectRatio="xMidYMid meet">
<metadata>
Created by potrace 1.10, written by Peter Selinger 2001-2011
</metadata>
<g transform="translate(0.000000,429.000000) scale(0.100000,-0.100000)"
fill="#000000" stroke="none">
<path d="M1878 3238 l-3 -1053 -937 -3 -938 -2 0 -60 0 -60 940 0 940 0 0
-1017 c0 -560 4 -1024 9 -1031 5 -9 25 -12 57 -10 l49 3 5 1025 5 1025 872 5
c621 4 875 8 883 16 6 6 10 31 8 55 l-3 44 -880 5 -880 5 -3 1053 -2 1052 -60
0 -60 0 -2 -1052z"/>
<path d="M3802 2148 l3 -2143 39 -3 c22 -2 50 -1 63 2 l23 6 0 2140 0 2140
-65 0 -65 0 2 -2142z"/>
</g>
</svg>
