<?xml version="1.0" standalone="no"?>
<!DOCTYPE svg PUBLIC "-//W3C//DTD SVG 20010904//EN"
 "http://www.w3.org/TR/2001/REC-SVG-20010904/DTD/svg10.dtd">
<svg version="1.0" xmlns="http://www.w3.org/2000/svg"
 width="642.000000pt" height="435.000000pt" viewBox="0 0 642.000000 435.000000"
 preserveAspectRatio="xMidYMid meet">
<metadata>
Created by potrace 1.10, written by Peter Selinger 2001-2011
</metadata>
<g transform="translate(0.000000,435.000000) scale(0.100000,-0.100000)"
fill="#000000" stroke="none">
<path d="M6290 4335 c0 -12 -69 -59 -130 -88 -8 -4 -24 -13 -35 -20 -11 -7
-51 -30 -90 -52 -38 -22 -79 -45 -90 -52 -11 -7 -27 -16 -35 -20 -8 -4 -46
-26 -85 -48 -38 -23 -77 -45 -85 -49 -8 -4 -24 -12 -35 -19 -11 -7 -51 -30
-90 -52 -38 -22 -79 -45 -90 -52 -11 -7 -27 -16 -35 -20 -8 -4 -46 -26 -85
-48 -38 -23 -77 -45 -85 -49 -8 -4 -24 -12 -35 -19 -11 -7 -51 -30 -90 -52
-38 -22 -79 -45 -90 -52 -11 -7 -27 -16 -35 -20 -8 -4 -46 -26 -85 -48 -38
-23 -77 -45 -85 -49 -8 -4 -24 -12 -35 -19 -11 -7 -51 -30 -90 -52 -38 -22
-79 -45 -90 -52 -11 -7 -27 -16 -35 -20 -8 -4 -46 -26 -85 -48 -38 -23 -77
-45 -85 -49 -8 -4 -24 -12 -35 -19 -11 -7 -51 -30 -90 -52 -38 -22 -79 -45
-90 -52 -11 -7 -27 -16 -35 -20 -8 -4 -46 -26 -85 -48 -38 -23 -77 -45 -85
-49 -8 -4 -24 -12 -35 -19 -11 -7 -51 -30 -90 -52 -38 -22 -79 -45 -90 -52
-11 -7 -27 -16 -35 -20 -8 -4 -46 -26 -85 -48 -38 -23 -77 -45 -85 -49 -8 -4
-24 -12 -35 -19 -11 -7 -51 -30 -90 -52 -38 -22 -79 -45 -90 -52 -11 -7 -27
-16 -35 -20 -8 -4 -46 -26 -85 -48 -38 -23 -77 -45 -85 -49 -8 -4 -24 -12 -35
-19 -11 -7 -51 -30 -90 -52 -38 -22 -79 -45 -90 -52 -11 -7 -27 -16 -35 -20
-8 -4 -46 -26 -85 -48 -38 -23 -77 -45 -85 -49 -8 -4 -24 -12 -35 -19 -93 -56
-117 -67 -125 -62 -6 3 -10 31 -10 61 0 134 -95 416 -185 548 -14 20 -25 39
-25 42 0 11 -95 130 -150 188 -46 50 -197 171 -265 213 -46 29 -205 103 -260
122 -159 53 -177 56 -430 55 -252 -1 -279 -4 -442 -59 -46 -16 -207 -92 -248
-118 -311 -196 -538 -518 -606 -862 -17 -83 -23 -400 -9 -490 47 -316 244
-638 513 -840 101 -76 267 -166 342 -186 17 -4 62 -17 100 -29 88 -26 265 -50
374 -50 152 0 352 44 506 110 79 34 88 39 120 60 17 11 37 23 45 27 33 15 208
154 251 199 151 159 250 323 314 524 30 91 55 213 55 265 0 30 4 57 10 60 8 5
32 -6 125 -62 11 -7 27 -15 35 -19 8 -4 47 -26 85 -49 39 -22 77 -44 85 -48 8
-4 24 -13 35 -20 11 -7 52 -30 90 -52 39 -22 79 -45 90 -52 11 -7 27 -15 35
-19 8 -4 47 -26 85 -49 39 -22 77 -44 85 -48 8 -4 24 -13 35 -20 11 -7 52 -30
90 -52 39 -22 79 -45 90 -52 11 -7 27 -15 35 -19 8 -4 47 -26 85 -49 39 -22
77 -44 85 -48 8 -4 24 -13 35 -20 11 -7 52 -30 90 -52 39 -22 79 -45 90 -52
11 -7 27 -15 35 -19 8 -4 47 -26 85 -49 39 -22 77 -44 85 -48 8 -4 24 -13 35
-20 11 -7 52 -30 90 -52 39 -22 79 -45 90 -52 11 -7 27 -15 35 -19 8 -4 47
-26 85 -49 39 -22 77 -44 85 -48 8 -4 24 -13 35 -20 11 -7 52 -30 90 -52 39
-22 79 -45 90 -52 11 -7 27 -15 35 -19 8 -4 47 -26 85 -49 39 -22 77 -44 85
-48 8 -4 24 -13 35 -20 11 -7 52 -30 90 -52 39 -22 79 -45 90 -52 11 -7 27
-15 35 -19 8 -4 47 -26 85 -49 39 -22 77 -44 85 -48 8 -4 24 -13 35 -20 11 -7
52 -30 90 -52 39 -22 79 -45 90 -52 11 -7 27 -15 35 -19 8 -4 47 -26 85 -49
39 -22 77 -44 85 -48 8 -4 24 -13 35 -20 11 -7 52 -30 90 -52 39 -22 78 -44
87 -50 9 -5 41 -23 70 -39 29 -16 65 -37 81 -48 15 -11 35 -18 44 -16 18 3 67
83 59 96 -2 4 -25 19 -51 32 -26 14 -54 30 -63 35 -10 6 -49 28 -87 50 -39 22
-79 45 -90 52 -11 7 -27 15 -35 19 -8 4 -46 26 -85 49 -38 22 -77 44 -85 48
-8 4 -24 13 -35 20 -11 7 -52 30 -90 52 -39 22 -79 45 -90 52 -11 7 -27 15
-35 19 -8 4 -46 26 -85 49 -38 22 -77 44 -85 48 -8 4 -24 13 -35 20 -11 7 -52
30 -90 52 -39 22 -79 45 -90 52 -11 7 -27 15 -35 19 -8 4 -46 26 -85 49 -38
22 -77 44 -85 48 -8 4 -24 13 -35 20 -11 7 -52 30 -90 52 -39 22 -79 45 -90
52 -11 7 -27 15 -35 19 -8 4 -46 26 -85 49 -38 22 -77 44 -85 48 -8 4 -24 13
-35 20 -11 7 -52 30 -90 52 -39 22 -79 45 -90 52 -11 7 -27 15 -35 19 -8 4
-46 26 -85 49 -38 22 -77 44 -85 48 -8 4 -24 13 -35 20 -11 7 -52 30 -90 52
-39 22 -79 45 -90 52 -11 7 -27 15 -35 19 -8 4 -46 26 -85 49 -38 22 -77 44
-85 48 -8 4 -24 13 -35 20 -11 7 -52 30 -90 52 -39 22 -79 45 -90 52 -11 7
-27 15 -35 19 -8 4 -46 26 -85 49 -38 22 -77 44 -85 48 -8 4 -24 13 -35 20
-11 7 -52 30 -90 52 -39 22 -79 45 -90 52 -11 7 -27 15 -35 19 -8 4 -49 27
-90 51 -41 24 -82 47 -90 52 -8 4 -16 15 -18 23 -2 12 216 14 1705 13 939 0
1714 1 1721 3 7 3 12 23 12 57 0 34 -5 54 -12 57 -7 2 -782 3 -1721 3 -1525
-1 -1707 1 -1705 14 2 9 12 20 23 26 23 12 150 84 180 102 11 7 27 16 35 20 8
4 47 26 85 48 39 23 77 45 85 49 8 4 24 12 35 19 11 7 51 30 90 52 38 22 79
45 90 52 11 7 27 16 35 20 8 4 47 26 85 48 39 23 77 45 85 49 8 4 24 12 35 19
11 7 51 30 90 52 38 22 79 45 90 52 11 7 27 16 35 20 8 4 47 26 85 48 39 23
77 45 85 49 8 4 24 12 35 19 11 7 51 30 90 52 38 22 79 45 90 52 11 7 27 16
35 20 8 4 47 26 85 48 39 23 77 45 85 49 8 4 24 12 35 19 11 7 51 30 90 52 38
22 79 45 90 52 11 7 27 16 35 20 8 4 47 26 85 48 39 23 77 45 85 49 8 4 24 12
35 19 11 7 51 30 90 52 38 22 79 45 90 52 11 7 27 16 35 20 8 4 47 26 85 48
39 23 77 45 85 49 8 4 24 12 35 19 11 7 51 30 90 52 38 22 79 45 90 52 11 7
27 16 35 20 8 4 47 26 85 48 39 23 77 45 85 49 8 4 24 12 35 19 11 7 51 30 90
52 38 22 79 45 90 52 11 7 27 16 35 20 8 4 47 26 85 48 39 23 77 44 85 48 42
20 115 66 115 74 0 4 -11 32 -25 60 -16 34 -31 53 -42 53 -10 0 -18 -7 -18
-15z m-4799 -980 c102 -16 180 -35 247 -59 320 -118 616 -422 720 -741 45
-139 56 -214 56 -390 0 -176 -11 -251 -56 -390 -116 -357 -454 -675 -818 -771
-343 -90 -701 -36 -975 148 -359 240 -555 598 -555 1013 0 147 29 303 82 445
95 251 332 506 593 638 204 103 473 144 706 107z"/>
</g>
</svg>
