<?xml version="1.0" standalone="no"?>
<!DOCTYPE svg PUBLIC "-//W3C//DTD SVG 20010904//EN"
 "http://www.w3.org/TR/2001/REC-SVG-20010904/DTD/svg10.dtd">
<svg version="1.0" xmlns="http://www.w3.org/2000/svg"
 width="645.000000pt" height="429.000000pt" viewBox="0 0 645.000000 429.000000"
 preserveAspectRatio="xMidYMid meet">
<metadata>
Created by potrace 1.10, written by Peter Selinger 2001-2011
</metadata>
<g transform="translate(0.000000,429.000000) scale(0.100000,-0.100000)"
fill="#000000" stroke="none">
<path d="M1878 3238 l-3 -1053 -937 -3 -938 -2 0 -60 0 -60 940 0 940 0 0
-1017 c0 -560 4 -1024 9 -1031 5 -9 25 -12 57 -10 l49 3 3 1020 c1 560 6 1023
10 1027 4 4 401 8 882 8 l875 1 7 -68 c10 -90 26 -177 46 -238 33 -105 55
-166 63 -171 5 -3 9 -12 9 -19 0 -12 37 -78 113 -200 26 -42 103 -132 161
-188 312 -300 731 -430 1147 -357 280 49 492 156 693 349 269 260 406 580 406
953 0 209 -39 388 -123 568 -122 261 -355 497 -612 623 -11 6 -28 14 -37 19
-18 8 -59 23 -161 58 -114 40 -191 50 -382 50 -277 0 -433 -40 -680 -174 -45
-25 -214 -157 -264 -207 -212 -213 -353 -512 -377 -801 l-7 -78 -881 2 -881 3
-3 1053 -2 1052 -60 0 -60 0 -2 -1052z m3472 67 c41 -9 90 -23 108 -31 18 -8
39 -14 47 -14 23 0 194 -90 265 -139 78 -55 229 -202 293 -288 26 -34 47 -64
47 -67 0 -3 13 -24 28 -48 31 -47 82 -163 106 -243 33 -110 46 -206 46 -349 0
-338 -101 -590 -335 -835 -73 -77 -195 -175 -261 -211 -62 -34 -67 -36 -99
-52 -58 -29 -211 -76 -301 -92 -114 -20 -294 -21 -404 -1 -269 49 -470 156
-668 356 -111 111 -242 321 -273 434 -5 17 -18 64 -30 105 -31 108 -39 397
-14 519 20 100 67 243 102 309 127 241 333 446 553 552 25 12 53 26 62 31 48
25 226 72 318 83 79 9 337 -2 410 -19z"/>
</g>
</svg>
