<?xml version="1.0" standalone="no"?>
<!DOCTYPE svg PUBLIC "-//W3C//DTD SVG 20010904//EN"
 "http://www.w3.org/TR/2001/REC-SVG-20010904/DTD/svg10.dtd">
<svg version="1.0" xmlns="http://www.w3.org/2000/svg"
 width="645.000000pt" height="429.000000pt" viewBox="0 0 645.000000 429.000000"
 preserveAspectRatio="xMidYMid meet">
<metadata>
Created by potrace 1.10, written by Peter Selinger 2001-2011
</metadata>
<g transform="translate(0.000000,429.000000) scale(0.100000,-0.100000)"
fill="#000000" stroke="none">
<path d="M4400 3255 c0 -569 -3 -1035 -7 -1035 -5 0 -402 0 -883 0 l-875 -1
-6 83 c-7 90 -27 179 -59 273 -12 33 -24 69 -27 79 -16 50 -110 218 -159 284
-104 138 -245 268 -379 348 -124 74 -233 119 -395 160 -85 22 -115 24 -300 24
-216 -1 -197 2 -428 -59 -18 -5 -85 -35 -150 -67 -216 -108 -399 -269 -530
-467 -83 -124 -162 -326 -188 -480 -17 -96 -15 -423 4 -507 54 -248 167 -463
347 -659 35 -39 226 -191 239 -191 3 0 22 -12 43 -26 69 -47 150 -81 318 -134
126 -40 414 -52 575 -25 278 46 570 206 752 412 35 38 143 182 165 218 84 137
173 418 173 542 0 60 7 84 24 77 6 -2 401 -6 876 -7 l865 -2 5 -1045 c3 -575
6 -1046 8 -1048 1 -2 26 -2 55 0 l52 3 2 1035 c3 964 4 1036 20 1048 14 10
210 12 933 12 503 0 921 0 928 0 9 0 12 16 10 58 l-3 57 -934 2 c-745 2 -936
5 -943 15 -4 7 -8 473 -8 1036 l0 1022 -60 0 -60 0 0 -1035z m-2810 76 c214
-54 354 -128 524 -276 156 -137 285 -327 344 -511 47 -145 55 -202 56 -383 0
-224 -12 -284 -95 -486 -18 -44 -37 -86 -43 -94 -12 -15 -32 -49 -42 -71 -16
-33 -79 -109 -152 -184 -157 -161 -322 -264 -517 -322 -85 -25 -276 -54 -355
-54 -112 0 -313 39 -435 84 -185 68 -388 225 -523 404 -92 122 -140 214 -191
362 -27 78 -51 247 -51 355 0 322 118 611 339 835 208 209 414 317 691 360 92
14 364 3 450 -19z"/>
</g>
</svg>
