<?xml version="1.0" standalone="no"?>
<!DOCTYPE svg PUBLIC "-//W3C//DTD SVG 20010904//EN"
 "http://www.w3.org/TR/2001/REC-SVG-20010904/DTD/svg10.dtd">
<svg version="1.0" xmlns="http://www.w3.org/2000/svg"
 width="642.000000pt" height="435.000000pt" viewBox="0 0 642.000000 435.000000"
 preserveAspectRatio="xMidYMid meet">
<metadata>
Created by potrace 1.10, written by Peter Selinger 2001-2011
</metadata>
<g transform="translate(0.000000,435.000000) scale(0.100000,-0.100000)"
fill="#000000" stroke="none">
<path d="M28 4301 c-29 -50 -35 -81 -18 -81 5 0 42 -19 82 -43 40 -24 80 -46
88 -50 8 -4 24 -13 35 -20 11 -7 52 -30 90 -52 39 -22 79 -45 90 -52 11 -7 27
-15 35 -19 8 -4 47 -26 85 -49 39 -22 77 -44 85 -48 8 -4 24 -13 35 -20 11 -7
52 -30 90 -52 39 -22 79 -45 90 -52 11 -7 27 -15 35 -19 8 -4 47 -26 85 -49
39 -22 77 -44 85 -48 8 -4 24 -13 35 -20 11 -7 52 -30 90 -52 39 -22 79 -45
90 -52 11 -7 27 -15 35 -19 8 -4 47 -26 85 -49 39 -22 77 -44 85 -48 8 -4 24
-13 35 -20 11 -7 51 -30 90 -52 38 -22 79 -45 90 -52 11 -7 27 -15 35 -19 19
-10 160 -91 180 -104 8 -6 22 -13 30 -17 8 -4 47 -25 85 -48 39 -22 77 -44 85
-48 8 -4 24 -13 35 -20 11 -7 52 -30 90 -52 39 -22 79 -45 90 -52 11 -7 27
-15 35 -19 8 -4 47 -26 85 -49 39 -22 77 -44 85 -48 8 -4 24 -13 35 -20 11 -7
52 -30 90 -52 39 -22 79 -45 90 -52 11 -7 27 -15 35 -19 8 -4 47 -26 85 -49
39 -22 77 -44 85 -48 8 -4 24 -13 35 -20 11 -7 52 -30 90 -52 39 -22 79 -45
90 -52 11 -7 27 -15 35 -19 8 -4 47 -26 85 -49 39 -22 77 -44 85 -48 8 -4 42
-23 75 -41 123 -67 246 -62 -1647 -61 -1008 0 -1718 -3 -1726 -8 -16 -12 -16
-92 0 -104 8 -5 716 -8 1726 -8 1893 1 1770 6 1647 -61 -33 -18 -67 -37 -75
-41 -8 -4 -46 -26 -85 -48 -38 -23 -77 -45 -85 -49 -8 -4 -24 -12 -35 -19 -11
-7 -51 -30 -90 -52 -38 -22 -79 -45 -90 -52 -11 -7 -27 -15 -35 -19 -8 -4 -46
-26 -85 -49 -38 -22 -77 -44 -85 -48 -8 -4 -24 -13 -35 -20 -11 -7 -51 -30
-90 -52 -38 -22 -79 -45 -90 -52 -11 -7 -27 -16 -35 -20 -8 -4 -46 -26 -85
-48 -38 -23 -77 -45 -85 -49 -8 -4 -24 -12 -35 -19 -11 -7 -51 -30 -90 -52
-38 -22 -79 -45 -90 -52 -11 -7 -27 -16 -35 -20 -8 -4 -46 -26 -85 -48 -38
-23 -77 -45 -85 -49 -8 -4 -24 -12 -35 -19 -11 -7 -51 -30 -90 -52 -38 -22
-79 -45 -90 -52 -11 -7 -27 -15 -35 -19 -8 -4 -46 -26 -85 -49 -38 -22 -77
-44 -85 -48 -8 -4 -24 -13 -35 -20 -11 -7 -51 -30 -90 -52 -38 -22 -79 -45
-90 -52 -11 -7 -27 -15 -35 -19 -8 -4 -46 -26 -85 -49 -38 -22 -77 -44 -85
-48 -8 -4 -24 -13 -35 -20 -11 -7 -51 -30 -90 -52 -38 -22 -79 -45 -90 -52
-11 -7 -27 -16 -35 -20 -19 -9 -160 -90 -180 -103 -8 -6 -22 -13 -30 -17 -8
-4 -46 -26 -85 -48 -38 -23 -77 -45 -85 -49 -8 -4 -24 -12 -35 -19 -11 -7 -51
-30 -90 -52 -38 -22 -79 -45 -90 -52 -11 -7 -27 -16 -35 -20 -8 -4 -48 -26
-88 -50 -40 -24 -77 -43 -82 -43 -16 0 -11 -30 12 -71 25 -45 35 -47 86 -16
20 13 44 27 52 31 8 4 24 12 35 19 11 7 52 30 90 52 39 22 79 45 90 52 11 7
27 15 35 19 8 4 47 26 85 49 39 22 77 44 85 48 8 4 24 13 35 20 11 7 52 30 90
52 39 22 79 45 90 52 11 7 27 15 35 19 8 4 47 26 85 49 39 22 77 44 85 48 8 4
24 13 35 20 11 7 52 30 90 52 39 22 79 45 90 52 11 7 27 15 35 19 8 4 47 26
85 49 39 22 77 44 85 48 8 4 24 13 35 20 11 7 52 30 90 52 39 22 79 45 90 52
11 7 27 15 35 19 8 4 47 26 85 49 39 22 77 44 85 48 8 4 24 13 35 20 11 7 52
30 90 52 39 22 79 45 90 52 11 7 27 15 35 19 8 4 47 26 85 49 39 22 77 44 85
48 8 4 24 13 35 20 11 7 52 30 90 52 39 22 79 45 90 52 11 7 27 15 35 19 8 4
47 26 85 49 39 22 77 44 85 48 8 4 24 13 35 20 11 7 52 30 90 52 39 22 79 45
90 52 11 7 27 15 35 19 8 4 47 26 85 49 39 22 77 44 85 48 8 4 24 13 35 20 11
7 52 30 90 52 39 22 79 45 90 52 11 7 27 15 35 19 19 10 160 91 180 104 8 6
22 13 30 17 8 4 48 26 88 50 41 24 78 41 83 37 5 -3 9 -22 9 -43 0 -42 32
-202 54 -271 72 -220 185 -399 358 -566 51 -49 126 -111 167 -138 88 -57 237
-134 283 -146 18 -5 65 -18 103 -30 99 -30 254 -42 439 -35 163 6 250 22 367
66 30 11 63 23 74 27 11 3 40 17 65 32 25 14 52 29 60 33 118 58 300 215 401
348 32 43 59 81 59 85 0 4 6 15 14 23 19 21 90 162 111 221 67 186 79 256 79
465 1 264 -23 379 -128 595 -144 299 -392 526 -715 656 -245 99 -589 111 -856
29 -78 -23 -248 -99 -310 -138 -106 -66 -235 -178 -313 -272 -87 -104 -120
-154 -182 -275 -64 -123 -130 -359 -130 -460 0 -21 -4 -41 -9 -44 -8 -5 -116
52 -181 94 -8 6 -22 13 -30 17 -8 4 -46 26 -85 48 -38 23 -77 45 -85 49 -8 4
-24 12 -35 19 -11 7 -51 30 -90 52 -38 22 -79 45 -90 52 -11 7 -27 16 -35 20
-8 4 -46 26 -85 48 -38 23 -77 45 -85 49 -8 4 -24 12 -35 19 -11 7 -51 30 -90
52 -38 22 -79 45 -90 52 -11 7 -27 16 -35 20 -8 4 -46 26 -85 48 -38 23 -77
45 -85 49 -8 4 -24 12 -35 19 -11 7 -51 30 -90 52 -38 22 -79 45 -90 52 -11 7
-27 16 -35 20 -8 4 -46 26 -85 48 -38 23 -77 45 -85 49 -8 4 -24 12 -35 19
-11 7 -51 30 -90 52 -38 22 -79 45 -90 52 -11 7 -27 16 -35 20 -8 4 -46 26
-85 48 -38 23 -77 45 -85 49 -8 4 -24 12 -35 19 -11 7 -51 30 -90 52 -38 22
-79 45 -90 52 -11 7 -27 16 -35 20 -8 4 -46 26 -85 48 -38 23 -77 45 -85 49
-8 4 -24 12 -35 19 -11 7 -51 30 -90 52 -38 22 -79 45 -90 52 -11 7 -27 16
-35 20 -8 4 -46 26 -85 48 -38 23 -77 45 -85 49 -8 4 -24 12 -35 19 -11 7 -51
30 -90 52 -38 22 -79 45 -90 52 -11 7 -27 16 -35 20 -8 4 -46 26 -85 48 -38
23 -77 45 -85 49 -8 4 -24 12 -35 19 -11 7 -51 30 -90 52 -38 22 -77 45 -87
50 -9 6 -38 21 -64 35 -26 14 -49 33 -52 43 -8 29 -26 19 -54 -32z m5237 -946
c252 -46 434 -138 614 -310 260 -249 381 -528 381 -880 0 -289 -70 -500 -241
-725 -70 -93 -243 -258 -293 -280 -6 -3 -29 -17 -51 -31 -154 -99 -407 -169
-615 -169 -80 0 -247 22 -309 40 -116 34 -154 49 -229 87 -122 62 -186 108
-288 206 -190 182 -296 367 -355 622 -19 81 -19 418 0 500 22 97 67 225 106
300 109 209 333 432 530 529 131 64 189 83 355 115 73 14 307 12 395 -4z"/>
</g>
</svg>
